<svg width="627" height="357" viewBox="0 0 627 357" fill="none" xmlns="http://www.w3.org/2000/svg">
<path d="M130.5 55C83.1001 55 44.6001 93.5 44.6001 140.9C44.6001 188.3 83.1001 226.8 130.5 226.8C177.9 226.8 216.4 188.3 216.4 140.9C216.4 93.5 178 55 130.5 55ZM130.5 169.8C114.6 169.8 101.6 156.9 101.6 140.9C101.6 124.9 114.5 112 130.5 112C146.4 112 159.4 124.9 159.4 140.9C159.4 156.9 146.5 169.8 130.5 169.8Z" fill="#00EF3B"/>
<path d="M308.5 55C261.1 55 222.6 93.5 222.6 140.9C222.6 188.3 261.1 226.8 308.5 226.8C355.9 226.8 394.4 188.3 394.4 140.9C394.4 93.5 355.9 55 308.5 55ZM308.8 170.5C292.9 170.5 279.9 157.6 279.9 141.6C279.9 125.6 292.8 112.7 308.8 112.7C324.7 112.7 337.7 125.6 337.7 141.6C337.7 157.6 324.8 170.5 308.8 170.5Z" fill="#FFC226"/>
<path d="M395.4 16.7C416 36.9 416.2 70 396 90.5L359.5 50.5999L395.4 16.7Z" fill="#F7931C"/>
<path d="M489.9 55C442.5 55 404 93.5 404 140.9C404 188.3 442.5 226.8 489.9 226.8C537.3 226.8 575.8 188.3 575.8 140.9C575.8 93.5 537.4 55 489.9 55ZM489.9 170.5C474 170.5 461 157.6 461 141.6C461 125.6 473.9 112.7 489.9 112.7C505.9 112.7 518.8 125.6 518.8 141.6C518.8 157.6 505.8 170.5 489.9 170.5Z" fill="#00D4F7"/>
<path d="M309 320.6C261.7 320.6 223.3 282.1 223.3 234.9H279.3C279.3 251.3 292.6 264.6 309 264.6C325.4 264.6 338.7 251.3 338.7 234.9H394.7C394.7 282.2 356.3 320.6 309 320.6Z" fill="#FFC226"/>
<path d="M455.8 255.9C453 255.9 450.4 256.6 448 258.1C445.8 259.4 443.9 261.2 442.4 263.5C441.4 261.2 439.9 259.4 437.9 258.1C435.6 256.6 433.1 255.9 430.3 255.9C425.7 255.9 421.7 257.8 418.5 261.4V256.9H411.7V296.2H418.5V279.4C418.5 274.7 418.9 271.2 419.8 269.2C420.6 267.2 422 265.6 423.7 264.4C425.5 263.2 427.3 262.6 429.3 262.6C431.2 262.6 432.9 263.1 434.1 264.1C435.4 265.1 436.2 266.4 436.6 268C437 269.6 437.2 272.4 437.2 276.2V296.3H443.9V280.7C443.9 276 444.3 272.5 445 270.1C445.7 267.8 447 266 448.8 264.6C450.6 263.3 452.6 262.6 454.7 262.6C456.8 262.6 458.4 263.1 459.7 264.1C460.9 265.1 461.8 266.3 462.1 267.7C462.5 269.2 462.7 271.6 462.7 274.9V296.3H469.6V274.9C469.6 267.7 468.2 262.7 465.6 260C462.8 257.2 459.5 255.9 455.8 255.9Z" fill="#00D4F7"/>
<path d="M511.7 261.9C508 257.9 503.4 255.9 498.1 255.9C492.4 255.9 487.5 257.9 483.5 262C479.5 266 477.5 271 477.5 276.6C477.5 282.3 479.5 287.2 483.4 291.3C487.3 295.4 492.2 297.5 497.7 297.5C502.9 297.5 507.6 295.4 511.6 291.4V296.3H518.3V257H511.6V261.9H511.7ZM498.2 291C494.4 291 491.1 289.6 488.4 286.8C485.7 284 484.3 280.6 484.3 276.8C484.3 273 485.7 269.6 488.3 266.8C491 264 494.3 262.6 498.1 262.6C501.9 262.6 505.2 264 507.9 266.7C510.6 269.4 511.9 272.9 511.9 276.9C511.9 280.9 510.5 284.4 507.8 287.1C505.2 289.7 502 291 498.2 291Z" fill="#00D4F7"/>
<path d="M536 257.2C535.1 257.9 534.1 258.8 533.2 259.9V256.8H526.3V296.1H533.2V282.4C533.2 276.4 533.5 272.2 534.1 270C534.7 267.8 535.5 265.9 536.6 264.6C538.2 262.6 540.1 262.1 542.2 263.2L542.6 263.4L546.1 257.6L545.6 257.3C541.8 255.3 538.6 255.4 536 257.2Z" fill="#00D4F7"/>
<path d="M570.3 262.9V256.8H562.7V242.4H555.9V256.8H549.3V262.9H555.9V290C555.9 292.5 556.5 294.4 557.7 295.6C558.9 296.8 560.7 297.4 563.1 297.4C564.3 297.4 566.1 297.2 568.3 296.8L568.7 296.7V290.8H564.8C563.4 290.8 563 290.6 563 290.6C563 290.6 562.8 290.4 562.8 289.2V262.8H570.3V262.9Z" fill="#00D4F7"/>
<path d="M81.4 255.9C75.7 255.9 70.8 258 66.9 262C63 266.1 61 271 61 276.7C61 282.4 63 287.3 66.9 291.4C70.8 295.4 75.7 297.5 81.5 297.5C87.2 297.5 92.1 295.4 96 291.4C99.9 287.4 101.9 282.4 101.9 276.7C101.9 271 99.9 266.1 96 262C91.9 257.9 87 255.9 81.4 255.9ZM81.4 290.9C77.5 290.9 74.3 289.5 71.7 286.8C69.1 284.1 67.8 280.8 67.8 276.9C67.8 273 69.2 269.6 71.8 266.8C74.5 264 77.7 262.6 81.3 262.6C84.9 262.6 88.2 264 90.9 266.8C93.6 269.6 94.9 273 94.9 276.9C94.9 280.8 93.6 284.1 90.9 286.8C88.4 289.5 85.1 290.9 81.4 290.9Z" fill="#00EF3B"/>
<path d="M142.9 261.7C139 257.8 134.4 255.8 129.2 255.8C123.7 255.8 118.8 257.8 114.8 261.7C110.8 265.6 108.8 270.4 108.8 275.9C108.8 281.2 110.7 285.8 114.5 289.7C118.3 293.6 123.1 295.5 128.7 295.5C131.5 295.5 134.3 294.9 136.9 293.8C139.1 292.9 141.1 291.6 142.8 289.9C142.7 293.2 142.3 295.8 141.5 297.4C140.6 299.2 139.1 300.6 136.9 301.7C134.7 302.8 132.1 303.3 129.3 303.3C123.2 303.3 118.8 300.9 116.2 296.2L116.1 295.9H108.9L109.2 296.6C112.6 305.2 119.5 309.6 129.6 309.6C132.6 309.6 135.4 309.2 137.9 308.3C140.4 307.4 142.6 306.1 144.4 304.4C146.2 302.7 147.6 300.5 148.5 298C149.4 295.5 149.8 291.7 149.8 286.6V256.8H143V261.7H142.9ZM139.2 266.3C141.8 268.8 143.1 272.1 143.1 275.9C143.1 279.7 141.8 282.9 139.3 285.4C136.8 287.9 133.4 289.1 129.4 289.1C125.4 289.1 122 287.8 119.5 285.3C116.9 282.8 115.6 279.7 115.6 276.1C115.6 272.5 117 269.3 119.6 266.6C122.3 263.9 125.6 262.5 129.6 262.5C133.4 262.5 136.6 263.8 139.2 266.3Z" fill="#00EF3B"/>
<path d="M192.5 262C188.6 257.9 183.7 255.9 178 255.9C172.3 255.9 167.4 258 163.5 262C159.6 266.1 157.6 271 157.6 276.7C157.6 282.4 159.6 287.3 163.5 291.4C167.4 295.4 172.3 297.5 178.1 297.5C183.8 297.5 188.7 295.4 192.6 291.4C196.5 287.4 198.5 282.4 198.5 276.7C198.4 271 196.4 266.1 192.5 262ZM178 290.9C174.1 290.9 170.9 289.5 168.3 286.8C165.7 284.1 164.4 280.8 164.4 276.9C164.4 273 165.8 269.6 168.4 266.8C171.1 264 174.3 262.6 177.9 262.6C181.5 262.6 184.8 264 187.5 266.8C190.2 269.6 191.5 273 191.5 276.9C191.5 280.8 190.2 284.1 187.5 286.8C185 289.5 181.8 290.9 178 290.9Z" fill="#00EF3B"/>
</svg>
